<svg width="16" height="20" viewBox="0 0 16 20" fill="none" xmlns="http://www.w3.org/2000/svg">
<path d="M1.40636 17.6771V18.4101C1.18802 18.1882 1.09595 17.9551 1.09595 17.6771V2.32292C1.09595 2.01924 1.19532 1.77795 1.41482 1.55845C1.63925 1.33402 1.87479 1.23958 2.15636 1.23958H10.1415L14.9272 6.02524V17.6771C14.9272 17.9587 14.8328 18.1942 14.6083 18.4186C14.3888 18.6381 14.1475 18.7375 13.8439 18.7375H2.15636C1.87835 18.7375 1.64522 18.6454 1.42334 18.4271H2.15636H13.8439H14.5939V17.6771V6.58542V5.83542H13.8439H10.2626V2.32292V1.57292H9.51261H2.15636H1.40636V2.32292V6.58542V17.6771Z" fill="#1B1C1E" stroke="#1B1C1E" stroke-width="1.5"/>
</svg>
